<svg version="1.1" viewBox="0.0 0.0 960.0 720.0" fill="none" stroke="none" stroke-linecap="square" stroke-miterlimit="10" xmlns:xlink="http://www.w3.org/1999/xlink" xmlns="http://www.w3.org/2000/svg"><clipPath id="p.0"><path d="m0 0l960.0 0l0 720.0l-960.0 0l0 -720.0z" clip-rule="nonzero"/></clipPath><g clip-path="url(#p.0)"><path fill="#000000" fill-opacity="0.0" d="m0 0l960.0 0l0 720.0l-960.0 0z" fill-rule="evenodd"/><path fill="#000000" fill-opacity="0.0" d="m33.609554 92.2973c-7.760248 -14.455978 -11.98164 -34.734383 -4.030411 -49.085636c7.9399223 -14.330845 33.362274 -21.973255 47.225285 -13.282629c6.642082 4.1638775 4.7592087 14.969522 6.9107666 22.522116c2.876915 10.098854 14.629158 15.388386 23.61264 20.788845c0.6985245 0.41992188 1.0368042 0.3464508 1.1517944 1.1549301c1.4202805 9.986252 -21.813507 12.572479 -20.157265 22.522118c2.2626877 13.592705 30.400673 17.815552 27.068024 31.185005c-5.8151627 23.328506 -48.00496 37.014664 -67.95757 23.675308c-22.831944 -15.264343 41.066032 -36.558304 60.470047 -56.01525" fill-rule="evenodd"/><path stroke="#000000" stroke-width="1.0" stroke-linejoin="round" stroke-linecap="butt" d="m33.609554 92.2973c-7.760248 -14.455978 -11.98164 -34.734383 -4.030411 -49.085636c7.9399223 -14.330845 33.362274 -21.973255 47.225285 -13.282629c6.642082 4.1638775 4.7592087 14.969522 6.9107666 22.522116c2.876915 10.098854 14.629158 15.388386 23.61264 20.788845c0.6985245 0.41992188 1.0368042 0.3464508 1.1517944 1.1549301c1.4202805 9.986252 -21.813507 12.572479 -20.157265 22.522118c2.2626877 13.592705 30.400673 17.815552 27.068024 31.185005c-5.8151627 23.328506 -48.00496 37.014664 -67.95757 23.675308c-22.831944 -15.264343 41.066032 -36.558304 60.470047 -56.01525" fill-rule="evenodd"/><path fill="#000000" fill-opacity="0.0" d="m137.27878 81.898506c10.038422 -10.838837 32.98442 -25.535053 42.04135 -13.859222c5.9492493 7.669533 -7.052658 20.840485 -16.125122 24.253647" fill-rule="evenodd"/><path stroke="#000000" stroke-width="1.0" stroke-linejoin="round" stroke-linecap="butt" d="m137.27878 81.898506c10.038422 -10.838837 32.98442 -25.535053 42.04135 -13.859222c5.9492493 7.669533 -7.052658 20.840485 -16.125122 24.253647" fill-rule="evenodd"/><path fill="#000000" fill-opacity="0.0" d="m162.6188 55.91264c-3.977539 11.965145 -7.311203 24.146633 -10.36615 36.381344" fill-rule="evenodd"/><path stroke="#000000" stroke-width="1.0" stroke-linejoin="round" stroke-linecap="butt" d="m162.6188 55.91264c-3.977539 11.965145 -7.311203 24.146633 -10.36615 36.381344" fill-rule="evenodd"/><path fill="#000000" fill-opacity="0.0" d="m134.39815 103.262474c10.14975 -1.696022 30.523407 -5.698036 30.523407 4.6197433c0 13.259682 -31.918839 31.341614 -35.130585 18.478973" fill-rule="evenodd"/><path stroke="#000000" stroke-width="1.0" stroke-linejoin="round" stroke-linecap="butt" d="m134.39815 103.262474c10.14975 -1.696022 30.523407 -5.698036 30.523407 4.6197433c0 13.259682 -31.918839 31.341614 -35.130585 18.478973" fill-rule="evenodd"/><path fill="#000000" fill-opacity="0.0" d="m145.34125 96.33372c-3.6205597 5.0826035 -7.101242 10.271454 -10.36615 15.590767" fill-rule="evenodd"/><path stroke="#000000" stroke-width="1.0" stroke-linejoin="round" stroke-linecap="butt" d="m145.34125 96.33372c-3.6205597 5.0826035 -7.101242 10.271454 -10.36615 15.590767" fill-rule="evenodd"/><path fill="#000000" fill-opacity="0.0" d="m173.56233 101.53045c6.787369 -3.8882446 23.780533 2.3816376 21.309052 9.817818c-3.1245422 9.401062 -21.496674 23.300797 -25.91623 14.437569" fill-rule="evenodd"/><path stroke="#000000" stroke-width="1.0" stroke-linejoin="round" stroke-linecap="butt" d="m173.56233 101.53045c6.787369 -3.8882446 23.780533 2.3816376 21.309052 9.817818c-3.1245422 9.401062 -21.496674 23.300797 -25.91623 14.437569" fill-rule="evenodd"/><path fill="#000000" fill-opacity="0.0" d="m187.38394 96.91027c-4.87265 5.4976044 -10.489517 10.306442 -16.125122 15.014168" fill-rule="evenodd"/><path stroke="#000000" stroke-width="1.0" stroke-linejoin="round" stroke-linecap="butt" d="m187.38394 96.91027c-4.87265 5.4976044 -10.489517 10.306442 -16.125122 15.014168" fill-rule="evenodd"/><path fill="#000000" fill-opacity="0.0" d="m200.05647 31.661036c1.7521973 11.13228 4.6071777 22.223055 4.6071777 33.493134" fill-rule="evenodd"/><path stroke="#000000" stroke-width="1.0" stroke-linejoin="round" stroke-linecap="butt" d="m200.05647 31.661036c1.7521973 11.13228 4.6071777 22.223055 4.6071777 33.493134" fill-rule="evenodd"/><path fill="#000000" fill-opacity="0.0" d="m203.51198 33.970318c12.964996 1.3442612 35.75891 -6.4072723 38.585968 6.35128c1.4163055 6.391857 -3.9283295 12.834091 -8.062561 17.90237" fill-rule="evenodd"/><path stroke="#000000" stroke-width="1.0" stroke-linejoin="round" stroke-linecap="butt" d="m203.51198 33.970318c12.964996 1.3442612 35.75891 -6.4072723 38.585968 6.35128c1.4163055 6.391857 -3.9283295 12.834091 -8.062561 17.90237" fill-rule="evenodd"/><path fill="#000000" fill-opacity="0.0" d="m210.423 54.179905c8.654861 -1.4459801 17.312561 -2.8936234 25.91623 -4.6197433" fill-rule="evenodd"/><path stroke="#000000" stroke-width="1.0" stroke-linejoin="round" stroke-linecap="butt" d="m210.423 54.179905c8.654861 -1.4459801 17.312561 -2.8936234 25.91623 -4.6197433" fill-rule="evenodd"/><path fill="#000000" fill-opacity="0.0" d="m205.23886 66.306526c10.969788 -1.099968 21.802505 -4.0414047 32.826996 -4.0414047" fill-rule="evenodd"/><path stroke="#000000" stroke-width="1.0" stroke-linejoin="round" stroke-linecap="butt" d="m205.23886 66.306526c10.969788 -1.099968 21.802505 -4.0414047 32.826996 -4.0414047" fill-rule="evenodd"/><path fill="#000000" fill-opacity="0.0" d="m222.51642 46.095646c0.68951416 8.284264 -0.3157196 16.944733 2.3035889 24.83199" fill-rule="evenodd"/><path stroke="#000000" stroke-width="1.0" stroke-linejoin="round" stroke-linecap="butt" d="m222.51642 46.095646c0.68951416 8.284264 -0.3157196 16.944733 2.3035889 24.83199" fill-rule="evenodd"/><path fill="#000000" fill-opacity="0.0" d="m210.99786 85.361885c-0.27540588 8.850204 -0.62820435 17.731453 0 26.563522" fill-rule="evenodd"/><path stroke="#000000" stroke-width="1.0" stroke-linejoin="round" stroke-linecap="butt" d="m210.99786 85.361885c-0.27540588 8.850204 -0.62820435 17.731453 0 26.563522" fill-rule="evenodd"/><path fill="#000000" fill-opacity="0.0" d="m221.36458 91.13608c2.1670837 8.689384 4.1152344 21.10447 12.671463 23.677048c7.7182617 2.320633 15.794418 -3.2356796 23.6109 -5.1980743" fill-rule="evenodd"/><path stroke="#000000" stroke-width="1.0" stroke-linejoin="round" stroke-linecap="butt" d="m221.36458 91.13608c2.1670837 8.689384 4.1152344 21.10447 12.671463 23.677048c7.7182617 2.320633 15.794418 -3.2356796 23.6109 -5.1980743" fill-rule="evenodd"/><path fill="#000000" fill-opacity="0.0" d="m236.3402 93.445755c1.4393005 2.3098755 1.4393005 2.3098755 2.8786163 4.6197433" fill-rule="evenodd"/><path stroke="#000000" stroke-width="1.0" stroke-linejoin="round" stroke-linecap="butt" d="m236.3402 93.445755c1.4393005 2.3098755 1.4393005 2.3098755 2.8786163 4.6197433" fill-rule="evenodd"/><path fill="#000000" fill-opacity="0.0" d="m258.2251 83.05221c6.4870605 3.9028702 13.08197 7.915962 18.42868 13.282631" fill-rule="evenodd"/><path stroke="#000000" stroke-width="1.0" stroke-linejoin="round" stroke-linecap="butt" d="m258.2251 83.05221c6.4870605 3.9028702 13.08197 7.915962 18.42868 13.282631" fill-rule="evenodd"/></g></svg>